<svg xmlns="http://www.w3.org/2000/svg" width="1200" height="600" viewBox="0 0 1200 600" role="img" aria-labelledby="scene-light-title scene-light-desc" data-palette="56e6a3-6adee7-acf6b9-561347e4092b">
<title id="scene-light-title">WeightCanary scene</title><desc id="scene-light-desc">Illustrative scene: snapshots from Hugging Face, ModelScope and Gitee flow into the canary and land in the commit-friendly ledger.</desc>
<rect width="1200" height="600" fill="#f9fefc"/>
<rect x="330" y="60" width="540" height="480" fill="url(#sc-light-haze)"/>
<path d="M 600 300 L 600 90" stroke="#cbf7e3" stroke-width="1.4" stroke-opacity=".8" fill="none"/><path d="M 600 300 L 314.21161675113524 405" stroke="#cbf7e3" stroke-width="1.4" stroke-opacity=".8" fill="none"/><path d="M 600 300 L 885.7883832488648 405" stroke="#cbf7e3" stroke-width="1.4" stroke-opacity=".8" fill="none"/><rect x="522" y="70" width="156" height="40" rx="20" fill="#f7fefa" stroke="#31825c" stroke-width="1.4"/><text x="600" y="95" text-anchor="middle" font-size="14" fill="#132a26">Hugging Face</text>
<circle cx="600" cy="230" r="3.4" fill="#31825c"/>
<circle cx="600" cy="170" r="3.4" fill="#3c7d83"/><rect x="236.21161675113524" y="385" width="156" height="40" rx="20" fill="#f7fefa" stroke="#31825c" stroke-width="1.4"/><text x="314.21161675113524" y="410" text-anchor="middle" font-size="14" fill="#132a26">ModelScope</text>
<circle cx="504.7372055837117" cy="335" r="3.4" fill="#31825c"/>
<circle cx="426.79491924311225" cy="365" r="3.4" fill="#3c7d83"/><rect x="807.7883832488648" y="385" width="156" height="40" rx="20" fill="#f7fefa" stroke="#31825c" stroke-width="1.4"/><text x="885.7883832488648" y="410" text-anchor="middle" font-size="14" fill="#132a26">Gitee</text>
<circle cx="695.2627944162882" cy="335" r="3.4" fill="#31825c"/>
<circle cx="773.2050807568878" cy="365" r="3.4" fill="#3c7d83"/>
<circle cx="600" cy="300" r="66" fill="#f7fefa" stroke="#31825c" stroke-width="2"/>
<text x="600" y="296" text-anchor="middle" font-size="16" font-weight="700" fill="#31825c">WeightCanary</text>
<text x="600" y="320" text-anchor="middle" font-size="11" fill="#557a7a" font-family="ui-monospace,Consolas,monospace">watch</text>
<rect x="330" y="536" width="200" height="34" rx="17" fill="#f7fefa" stroke="#cbf7e3"/><text x="430" y="558" text-anchor="middle" font-size="12" fill="#557a7a">models.yaml 输入</text>
<rect x="670" y="536" width="220" height="34" rx="17" fill="#f7fefa" stroke="#cbf7e3"/><text x="780" y="558" text-anchor="middle" font-size="12" fill="#557a7a">state.json 账本输出</text>
<defs>
<radialGradient id="sc-light-haze"><stop stop-color="#31825c" stop-opacity=".12"/><stop offset="1" stop-color="#f9fefc" stop-opacity="0"/></radialGradient>
<pattern id="sc-light-grid" width="40" height="40" patternUnits="userSpaceOnUse"><path d="M40 0H0V40" fill="none" stroke="#cbf7e3" stroke-opacity=".35" stroke-width=".6"/></pattern>
</defs>
<rect width="1200" height="600" fill="url(#sc-light-grid)"/>

</svg>